<svg width="32" height="32" viewBox="0 0 32 32" fill="none" xmlns="http://www.w3.org/2000/svg">
<path d="M29.2932 24.4398C29.2932 24.9198 29.1865 25.4132 28.9598 25.8932C28.7332 26.3732 28.4398 26.8265 28.0532 27.2532C27.3998 27.9732 26.6798 28.4932 25.8665 28.8265C25.0665 29.1598 24.1998 29.3332 23.2665 29.3332C21.9065 29.3332 20.4532 29.0132 18.9198 28.3598C17.3865 27.7065 15.8532 26.8265 14.3332 25.7198C12.784 24.5866 11.3221 23.3387 9.95984 21.9865C8.61153 20.6292 7.36797 19.1717 6.23984 17.6265C5.1465 16.1065 4.2665 14.5865 3.6265 13.0798C2.9865 11.5598 2.6665 10.1065 2.6665 8.71984C2.6665 7.81317 2.8265 6.9465 3.1465 6.1465C3.4665 5.33317 3.97317 4.5865 4.67984 3.91984C5.53317 3.07984 6.4665 2.6665 7.45317 2.6665C7.8265 2.6665 8.19984 2.7465 8.53317 2.9065C8.87984 3.0665 9.1865 3.3065 9.4265 3.65317L12.5198 8.01317C12.7598 8.3465 12.9332 8.65317 13.0532 8.9465C13.1732 9.2265 13.2398 9.5065 13.2398 9.75984C13.2398 10.0798 13.1465 10.3998 12.9598 10.7065C12.7865 11.0132 12.5332 11.3332 12.2132 11.6532L11.1998 12.7065C11.0532 12.8532 10.9865 13.0265 10.9865 13.2398C10.9865 13.3465 10.9998 13.4398 11.0265 13.5465C11.0665 13.6532 11.1065 13.7332 11.1332 13.8132C11.3732 14.2532 11.7865 14.8265 12.3732 15.5198C12.9732 16.2132 13.6132 16.9198 14.3065 17.6265C15.0265 18.3332 15.7198 18.9865 16.4265 19.5865C17.1198 20.1732 17.6932 20.5732 18.1465 20.8132C18.2132 20.8398 18.2932 20.8798 18.3865 20.9198C18.4932 20.9598 18.5998 20.9732 18.7198 20.9732C18.9465 20.9732 19.1198 20.8932 19.2665 20.7465L20.2798 19.7465C20.6132 19.4132 20.9332 19.1598 21.2398 18.9998C21.5465 18.8132 21.8532 18.7198 22.1865 18.7198C22.4398 18.7198 22.7065 18.7732 22.9998 18.8932C23.2932 19.0132 23.5998 19.1865 23.9332 19.4132L28.3465 22.5465C28.6932 22.7865 28.9332 23.0665 29.0798 23.3998C29.2132 23.7332 29.2932 24.0665 29.2932 24.4398Z" stroke="#F48C06" stroke-width="1.5" stroke-miterlimit="10"/>
<path d="M24.6667 11.9998C24.6667 11.1998 24.04 9.97317 23.1067 8.97317C22.2533 8.05317 21.12 7.33317 20 7.33317M29.3333 11.9998C29.3333 6.83984 25.16 2.6665 20 2.6665" stroke="#F48C06" stroke-width="1.5" stroke-linecap="round" stroke-linejoin="round"/>
</svg>
