<svg width="36" height="37" viewBox="0 0 36 37" fill="none" xmlns="http://www.w3.org/2000/svg">
<rect width="36" height="37" rx="9" fill="white"/>
<path d="M33.0833 24.6105C33.0833 29.9188 29.9187 33.0834 24.6104 33.0834H22.875C22.0729 33.0834 21.4167 32.4272 21.4167 31.6251V23.2105C21.4167 22.8167 21.7375 22.4813 22.1312 22.4813L24.6979 22.4376C24.9021 22.423 25.0771 22.2772 25.1208 22.073L25.6312 19.2876C25.6412 19.2244 25.6373 19.1599 25.6198 19.0984C25.6024 19.037 25.5718 18.98 25.5302 18.9315C25.4886 18.8829 25.437 18.844 25.3789 18.8174C25.3208 18.7907 25.2576 18.777 25.1937 18.7772L22.0875 18.8209C21.6792 18.8209 21.3583 18.5001 21.3437 18.1063L21.2854 14.5334C21.2854 14.3001 21.475 14.0959 21.7229 14.0959L25.2229 14.0376C25.4708 14.0376 25.6604 13.848 25.6604 13.6001L25.6021 10.1001C25.6021 9.85216 25.4125 9.66258 25.1646 9.66258L21.2271 9.72091C20.6523 9.72965 20.0849 9.85172 19.5574 10.0801C19.0298 10.3086 18.5526 10.6388 18.1529 11.052C17.7533 11.4652 17.4391 11.9532 17.2284 12.4881C17.0177 13.0229 16.9146 13.5941 16.925 14.1688L16.9979 18.1792C17.0125 18.5876 16.6917 18.9084 16.2833 18.923L14.5333 18.9522C14.2854 18.9522 14.0958 19.1417 14.0958 19.3897L14.1396 22.1605C14.1396 22.4084 14.3292 22.598 14.5771 22.598L16.3271 22.5688C16.7354 22.5688 17.0562 22.8897 17.0708 23.2834L17.2021 31.5959C17.2167 32.4126 16.5604 33.0834 15.7437 33.0834H12.3896C7.08124 33.0834 3.91666 29.9188 3.91666 24.5959V12.3897C3.91666 7.08133 7.08124 3.91675 12.3896 3.91675H24.6104C29.9187 3.91675 33.0833 7.08133 33.0833 12.3897V24.6105Z" fill="#0085FF"/>
</svg>
