<svg width="42" height="40" viewBox="0 0 42 40" fill="none" xmlns="http://www.w3.org/2000/svg">
<rect width="41.1111" height="40" rx="4" fill="#008000"/>
<path d="M17.9667 19.675H23.3833M20.675 22.3833V16.9667M31.8333 30.8333L29.6667 28.6667M20.4583 29.75C21.8098 29.75 23.1481 29.4838 24.3968 28.9666C25.6454 28.4494 26.78 27.6913 27.7356 26.7356C28.6913 25.78 29.4494 24.6454 29.9666 23.3968C30.4838 22.1481 30.75 20.8099 30.75 19.4583C30.75 18.1068 30.4838 16.7685 29.9666 15.5199C29.4494 14.2712 28.6913 13.1367 27.7356 12.181C26.78 11.2254 25.6454 10.4673 24.3968 9.95007C23.1481 9.43287 21.8098 9.16666 20.4583 9.16666C17.7288 9.16666 15.1111 10.251 13.181 12.181C11.251 14.1111 10.1667 16.7288 10.1667 19.4583C10.1667 22.1878 11.251 24.8056 13.181 26.7356C15.1111 28.6657 17.7288 29.75 20.4583 29.75Z" stroke="white" stroke-width="1.5" stroke-linecap="round" stroke-linejoin="round"/>
</svg>
