<svg width="42" height="39" viewBox="0 0 42 39" fill="none" xmlns="http://www.w3.org/2000/svg">
<path d="M20.9998 0C9.49984 0 0.166504 8.3 0.166504 18.52C0.166504 24.32 3.1665 29.48 7.83317 32.88V36.58C7.83317 38.12 9.54151 39.08 10.9373 38.32L14.8123 36.22C16.7707 36.76 18.8332 37.04 20.979 37.04C32.479 37.04 41.8123 28.74 41.8123 18.52C41.8332 8.3 32.4998 0 20.9998 0ZM28.3123 16.88L23.104 22.86C22.7707 23.24 22.229 23.32 21.7915 23.08L19.6873 21.9C19.452 21.7768 19.1775 21.7412 18.9165 21.8L14.729 22.78C14.5156 22.8279 14.2919 22.8101 14.0895 22.7293C13.8871 22.6485 13.7163 22.5087 13.6012 22.3297C13.4861 22.1506 13.4325 21.9414 13.4479 21.7315C13.4634 21.5216 13.5471 21.3217 13.6873 21.16L18.979 15.12C19.2915 14.76 19.8332 14.66 20.2707 14.88L22.729 16.12C22.9598 16.2357 23.2274 16.2643 23.479 16.2L27.2707 15.26C28.229 15.02 28.9582 16.14 28.3123 16.88Z" fill="white"/>
</svg>
