<svg width="23" height="23" viewBox="0 0 23 23" fill="none" xmlns="http://www.w3.org/2000/svg">
<path d="M11.4998 5.26124V19.6362M7.42692 8.13624H5.27067M8.14567 11.0112H5.27067M21.0832 16.0425V4.47541C21.0832 3.32541 20.144 2.47249 19.0036 2.56833H18.9461C16.9336 2.74083 13.8765 3.76624 12.1707 4.83958L12.0078 4.94499C11.7298 5.11749 11.2698 5.11749 10.9919 4.94499L10.7523 4.80124C9.0465 3.73749 5.999 2.72166 3.9865 2.55874C2.84609 2.46291 1.9165 3.32541 1.9165 4.46583V16.0425C1.9165 16.9625 2.664 17.825 3.584 17.94L3.86192 17.9783C5.9415 18.2562 9.15192 19.3104 10.9919 20.3167L11.0303 20.3358C11.289 20.4796 11.7011 20.4796 11.9503 20.3358C13.7903 19.32 17.0103 18.2562 19.0994 17.9783L19.4157 17.94C20.3357 17.825 21.0832 16.9625 21.0832 16.0425Z" stroke="#F48C06" stroke-width="2" stroke-linecap="round" stroke-linejoin="round"/>
</svg>
