<svg width="23" height="23" viewBox="0 0 23 23" fill="none" xmlns="http://www.w3.org/2000/svg">
<path d="M11.5002 11.5C12.771 11.5 13.9898 10.9952 14.8884 10.0965C15.787 9.19793 16.2918 7.97915 16.2918 6.70832C16.2918 5.43749 15.787 4.21871 14.8884 3.3201C13.9898 2.42149 12.771 1.91666 11.5002 1.91666C10.2293 1.91666 9.01055 2.42149 8.11194 3.3201C7.21333 4.21871 6.7085 5.43749 6.7085 6.70832C6.7085 7.97915 7.21333 9.19793 8.11194 10.0965C9.01055 10.9952 10.2293 11.5 11.5002 11.5Z" stroke="#F48C06" stroke-width="2" stroke-linecap="round" stroke-linejoin="round"/>
<path d="M18.4094 15.0842L15.0169 18.4767C14.8827 18.6108 14.7582 18.86 14.7294 19.0421L14.5473 20.3358C14.4802 20.8054 14.8061 21.1313 15.2757 21.0642L16.5694 20.8821C16.7515 20.8533 17.0102 20.7288 17.1348 20.5946L20.5273 17.2021C21.1119 16.6175 21.3898 15.9371 20.5273 15.0746C19.6744 14.2217 18.994 14.4996 18.4094 15.0842Z" stroke="#F48C06" stroke-width="2" stroke-miterlimit="10" stroke-linecap="round" stroke-linejoin="round"/>
<path d="M17.9209 15.5729C18.2084 16.6079 19.0134 17.4129 20.0484 17.7004" stroke="#F48C06" stroke-miterlimit="10" stroke-linecap="round" stroke-linejoin="round"/>
<path d="M3.26807 21.0833C3.26807 17.3746 6.95765 14.375 11.5002 14.375C12.4968 14.375 13.4552 14.5188 14.3464 14.7871" stroke="#F48C06" stroke-width="2" stroke-linecap="round" stroke-linejoin="round"/>
</svg>
